<?xml version="1.0" encoding="UTF-8"?>
<svg id="Layer_1" xmlns="http://www.w3.org/2000/svg" version="1.1" viewBox="0 0 688 813.9">
  <!-- Generator: Adobe Illustrator 29.1.0, SVG Export Plug-In . SVG Version: 2.1.0 Build 142)  -->
  <defs>
    <style>
      .st0 {
        fill: #071334;
      }

      .st1 {
        fill: #f7f8f9;
      }

      .st2 {
        fill: #289f64;
      }

      .st3 {
        fill: #112249;
      }
    </style>
  </defs>
  <path class="st0" d="M449.7,690.3c-9.8.8-14.1.7-18.2-.3-1.9-.5,1.4-.8,9.2-.9,7.4,0,12.5-.5,12.8-1.2.4-.6-.2-2-1.2-3.2-1.8-2-1.8-2.1.3-1,1.2.6,2.8,2.2,3.7,3.5l1.6,2.4-8.2.6ZM463.5,602.9c-.3.5-1.5,1.5-2.5,2-1.6.8-1.9.7-1.7-1,.1-1.4.9-2,2.5-2s2.1.4,1.7,1Z"/>
  <path class="st3" d="M524.6,489.5l-3.4,3.4h-55.9c-53.2,0-56,0-59-1.9-1.2-.7-2.2-1.2-2.9-1.8-3.5-2.9-3.5-9.9-3.4-62.8v-19.3c0-60.2,0-67.6,3.6-70.3.6-.5,1.4-.8,2.2-1.3,2-1,5-1.3,11.2-.9,4.7.3,9.6,0,11.1-.5l2.6-1-.3-10.6c-.3-8.1,0-11.3,1.2-13.6,3.1-6,3.2-6,50.2-6h42.8l16.7,16.7,16.7,16.7v20c0,8.9,0,16.9,0,24.3.2,69.7.2,75.5-2.7,77.8-.6.4-1.2.8-2,1.4-2.3,1.8-4,2.1-13.5,2.1h-10.8l-.5,3.2c-.3,1.8-.5,6.2-.4,9.8.2,10.4,0,11-3.5,14.6ZM279.5,728.6l-4.5,4.3h-62.7c-45.1,0-63.3-.4-64.7-1.2-2.6-1.5-6-5-7.4-7.5-1.6-3.1-1.2-87,.4-90.4,2.2-4.4,7.4-8,11.6-8s4-.5,4.3-1.2c.2-.7.6-9.1.8-18.8.2-9.6.7-19.1,1.1-21,.9-4.3,5.7-14.5,8.8-18.5,3.6-4.6,12-12.5,13.5-12.5s1.3-.4,1.3-.8c0-1.3,12.9-7,17.5-7.7,6.4-1,21.5-1.2,22.1-.3.3.5,1,.6,1.5.3,1.6-1,13.5,3.5,18.1,6.7,7,5,16.8,15.8,20,22.1,4.2,8.4,5.9,18.3,5.9,35.8v1.9c0,9,0,12.1,1.5,13.3.9.8,2.4.8,4.7,1.1,3.8.4,7.4,3.1,9.6,7.3.8,1.5,1.1,15.1,1.1,46.4v44.2l-4.5,4.3ZM412,482c.8.5,24.5.9,52.6.9,39.8,0,51.4-.2,52.2-1.2.7-.8,1.1-19.2,1.3-53.6.3-45.2,0-52.4-1.2-53.2-.8-.5-6.5-.9-12.6-.9-7.7,0-11.6,0-13.7-2-2.2-2-2.3-6.2-2.6-14.7l-.5-12.8-37.4-.3c-26.8-.2-37.8,0-38.8.9-1.1.9-1.3,12.5-1.1,68.6.2,58.9.4,67.6,1.8,68.3ZM580.1,730.1c-3.3,3.3-4.5,3.9-8.2,3.9s-4.6-.3-20.1-15.8c-13.5-13.5-15.8-16.2-15.8-18.8,0-2.9-4.2-8.4-6.4-8.4s-4.2,1.7-8.3,3.7c-7,3.5-8.2,3.7-18.7,4.1-13.2.5-19.8-1-28.9-6.5-6.5-4-15.7-12.6-15.7-14.8s-.4-1.5-.8-1.5-2.4-3.3-4.2-7.2c-3.3-7-3.4-7.7-3.3-18.8,0-6.3.4-12.8.8-14.5,1.6-6.7,6.7-15.5,12.5-21.7,10-10.7,21.8-15.7,37.2-15.7,21.5,0,36.5,10,46.5,31.4,2.4,5.1,2.9,7.6,3.3,16.6.5,12.1-.9,18.8-6,27.8l-3,5.4,3.6,3.3c2,1.8,4.6,3.3,5.9,3.3,1.6,0,7,4.7,18,15.8,15.5,15.5,15.8,15.9,15.8,20.1s-.6,4.9-3.9,8.2ZM277.5,486.6c-4,1.8-6.7,2.3-13,2.3-9.8,0-16.6-2.9-22.1-9.3-3.2-3.7-8.3-12.3-8.6-14.4,0-.4-2.3-5.1-4.9-10.4s-4.5-9.9-4.2-10.2c.3-.3,0-.6-.6-.6s-.9-.5-.6-1,.1-1-.5-1-.9-.4-.5-.9c.3-.5.2-1.1-.2-1.2-.4-.2-1.8-2-3.1-4.1-2-3.3-8.4-8.1-17.1-13-2.1-1.2-4.1-4-6.8-9.5-2.1-4.3-4.1-8-4.5-8.1-.4-.2-.5-.7-.2-1.2.3-.5,0-.9-.5-.9s-.8-.5-.5-1,.2-1-.2-1-2.4-3.3-4.3-7.2c-1.9-4-3.8-7.4-4.2-7.6-.4-.2-.5-.7-.2-1.2.3-.5,0-.9-.5-.9s-.8-.5-.5-1,.2-1-.3-1-2.2-2.9-3.8-6.5c-1.6-3.6-3.2-6.5-3.7-6.5s-.6-.5-.2-1,.1-1-.5-1-.8-.5-.5-1,.1-1-.5-1-.8-.5-.5-1,.1-1-.5-1-.9-.4-.5-.9c.3-.5.2-1.1-.3-1.2-1.1-.4-11.4-20.8-10.5-20.8s0-.7-.6-1.5-.9-1.5-.5-1.5.3-.6-.3-1.3c-.6-.8-1-5-.9-10.2.2-7.8.6-9.6,3-13.7,1.5-2.6,3.2-4.8,3.7-4.8.9,0,4.5,5.4,32.2,47.5,38.4,58.5,51.9,78.5,53,78.5.7,0,3.8-.9,6.8-2,5.9-2.1,16.5-2.7,17.5-1,.3.6,1,.8,1.5.5,3.2-2,15.6,9.2,19.3,17.3,2.6,5.9,2.9,17.8.5,23.4-2.4,5.5-9.6,12.8-15.3,15.5ZM536.3,718.8c-3.8,4.6-5,4.7-69.6,4.1l-60.8-.5-3.4-3.8-3.4-3.8.3-81.9.3-81.9,3.7-3.6,3.7-3.6h96l17.1,16.7c9.4,9.2,17.6,17.6,18.2,18.7.9,1.6,1,9.5.4,23.3-.1,2.8-.8,2.8-3.2.2-1-1.2-3.1-2.8-4.7-3.5-2.5-1.3-2.8-1.9-2.8-6.9v-5.5h-12.6c-13,0-17.2-1.1-19.1-5-.4-.8-1-7.4-1.3-14.5l-.5-13h-41.7c-22.9,0-42,.4-42.5.8-.9.9-1.8,148.4-.9,153.3.4,1.9,1.4,3.5,2.9,4.1,1.5.7,21.3,1.1,57.5,1.2,52.8.1,55.2,0,57-1.8s2.1-2.5,2.3-3.2c.3-.9,1.7-.3,4.6,2,4.6,3.7,5,4.9,2.4,7.9ZM494.5,685.9c.4.6,1.7.9,2.9.6,1.2-.2,4.7-.7,7.7-1.1,6.7-.8,16.4-5.8,21.4-11.2,7.8-8.3,11.5-20.4,9.5-31.5-.6-3.5-1.2-6.9-1.2-7.6s-.5-1.2-1-1.2-.6-.5-.3-1,0-1-.6-1-1-.3-.6-.6c1.7-1.7-11.3-14.1-18.1-17.2-4.7-2.2-7.1-2.6-14.2-2.6-7.2,0-9.4.4-14.3,2.7-12.9,6.1-18.4,12.6-22.3,26.6-1.5,5.4-1.5,7.1-.5,12.9,2.4,12.8,9.2,22.4,19.7,27.8,2.2,1.1,4.1,2.3,4.2,2.7.2.4,1,.5,1.8.2.8-.3,1.4-.1,1.4.5s.8.8,1.9.5c1-.3,2.2,0,2.6.6ZM529.2,450.7c1.2,1.2,14.3,1.7,17.2.6,1.4-.5,1.6-6.2,1.6-53.9s-.2-53.4-1.6-53.9c-.9-.3-6.2-.6-11.8-.6-10,0-10.3,0-13.2-2.9-1.6-1.6-3-3.5-3-4.2s-.2-6.2-.3-12.1l-.2-10.8h-38c-3.7,0-7,0-10.1,0-20.9,0-27.4,0-29.3,2.9-.9,1.3-.8,3.3-.7,6.1,0,.9,0,1.9,0,3,0,7.8,0,8.1,2.6,9.1,1.6.6,12.2.8,27.4.5l24.8-.5,15.1,15.4c8.3,8.5,15.8,16.2,16.6,17.3,1.2,1.6,1.4,8.8,1.5,42.4,0,30.2.3,40.9,1.2,41.8ZM178,623.4l1,2.6h67.2l-.3-17.8c-.3-17.2-.4-17.9-3.2-23.6-3.3-6.8-9.1-12.7-16.1-16.5-4.4-2.3-6.1-2.7-14-2.7-8.1,0-9.6.3-15.5,3.2-3.6,1.8-7.9,4.6-9.6,6.3-4.2,4.1-8.4,13.2-9.4,20.5-1.2,8.1-1.1,24.8,0,27.9ZM171.6,487c-5.8,2.6-18.6,2.6-24.4,0-4.8-2.2-14.5-10.8-13.7-12.2.3-.5,0-.9-.6-.9s-.8-.5-.5-1,0-1-.6-1-.9-.3-.6-.7c.4-.4.2-1.3-.4-2-1.3-1.5-2.4-13.4-1.5-15.8.3-.9.7-1.9.7-2.3.7-4.3,8.8-16.2,11.1-16.2s1.7-.7,2.5-1.5c3.4-3.4,21.2-6.2,22.9-3.6.3.5,1.2.7,2.1.4s1.5,0,1.5.6.4.9.9.6c.5-.3,2.1,0,3.5.6,2.9,1.3,3.9.5,9.8-8.8,1.8-2.9,3.6-5.2,4-5.2.4,0,1.6,1.6,2.6,3.7,1,2,4.3,5.6,7.3,7.8,4.4,3.4,5.3,4.6,5.1,6.8-.1,1.4-4.5,11.4-9.8,22.1-10.1,20.8-13.2,24.8-21.8,28.7ZM244.6,383.4c-4.8,9.4-8.9,17.1-9,17.2-.9,1-11.6-14.3-11.6-16.6s-.5-1.1-1-1.1-1-.7-1-1.5-.5-1.5-1-1.5-1-.7-1-1.5-.4-1.5-.8-1.5-.9-1.4-1-3c-.1-1.6.2-3,.8-3s1-.7,1-1.5.5-1.5,1-1.5,1-.7,1-1.5.5-1.5,1-1.5,1-.5,1-1c0-1.4,7-12.4,8.1-12.8.5-.2.9-1,.9-1.8s.5-1.4,1-1.4,1-.7,1-1.5.5-1.5,1-1.5,1-.7,1-1.5.5-1.5,1-1.5,1-.7,1-1.5.5-1.5,1-1.5,1-.6,1-1.3c0-1.4,6.9-12.1,8.2-12.6.5-.2.8-1,.8-1.8s.5-1.4,1-1.4,1-.6,1-1.4.3-1.6.8-1.8c.4-.2,1.5-1.9,2.5-3.8,1-1.9,2.6-4.6,3.7-6l1.9-2.5,2.6,2.4c1.4,1.3,3.2,4.7,4.1,7.4,3.3,11.1,1.2,20.9-8.3,39.1-3.2,6-9.7,18.6-14.6,28ZM478.1,449.3c-6.9,3.1-19.9,3.3-27,.5-6.9-2.7-15.7-11.2-15.6-14.9.3-6.1,4.9-6.8,9.6-1.5,10.7,12.2,29,11,38-2.3q3.9-5.7,4-12.8c0-5.7-.2-6.9-2.3-10.8-3.9-7.3-13.4-13.4-20.8-13.4-3.1,0-10.7,2.5-13.3,4.5-1.8,1.3-1.7,1.5.9,5,1.5,2,2.5,4.2,2.2,5-.7,1.8-21.3,3.4-22.9,1.8-.8-.8-.8-2.9,0-7.6.6-3.6.8-7.4.5-8.6-.6-2.2,1.4-8,2.7-8s1,.6,1.3,1.4c.3.8,1.7,2.2,3.1,3.1,2.5,1.6,2.7,1.6,6.5-1,5.1-3.5,12-5.6,19-5.5,6.4,0,13.1,1.6,13.1,3.1s.5.7,1,.4,1-.1,1,.4.8,1.1,1.8,1.1c3.2,0,11.8,10,14.2,16.5,3,7.9,2.6,21.7-.7,28.1-3,5.7-10.8,13.3-16.2,15.8ZM200.7,704.6c.4,1,3,1.4,10.7,1.3,11.5,0,13.2-.6,12-4.1-.4-1.3-.9-3.3-1-4.4-.1-1.1-.5-3.6-.8-5.5-1.4-8-1.7-13-.8-13s2.1-2.1,3.5-4.8c2.2-4.1,2.4-5.3,1.6-9-1.1-5.3-6.4-10.9-11.2-11.8-4.8-.9-12,2.4-14.6,6.7-2.7,4.4-2.7,11.1,0,15.5,1.2,1.8,2.5,3.4,3,3.4,1.4,0,1.1,3.4-1,14.4-1.1,5.4-1.7,10.5-1.4,11.2ZM154,476c0,1.2,9.8,0,12.6-1.4,3.2-1.7,6.6-5.1,8.3-8.5,1.4-2.7,1.2-14.2-.3-14.2s-.7-.3-.4-.7c1.2-1.2-6-7.2-10.1-8.4-11.3-3.4-23,6.3-22,18.3.5,5.5,4.1,10.9,8.7,12.9,1.7.7,3,1.6,3,1.9ZM264,475.9c6.7.7,10.9-1.4,14.6-7,6.1-9.2,2.9-20.6-7-25.1-5.3-2.4-9-2.4-14.4.2-9.9,4.8-12.6,17.5-5.6,25.8,3.5,4.2,5.9,5.4,12.4,6ZM517.2,668.3c-1.6,1.4-4.5,1.7-20.3,1.7s-18.7-.2-20-1.8c-1.9-2.1-4.8-7.8-4.8-9.2s6.7-1,21.8-1c18.3,0,22,.4,23.5,1.7,2.3,2.1,2.2,6.5,0,8.6ZM517.2,637.3c-1.6,1.4-4.7,1.7-22.9,1.7s-21.3-.4-21.8-1.1c-.4-.6.6-3.2,2.2-5.8l2.9-4.7,18.9-.2c16.1-.2,19.2,0,20.7,1.4,2.3,2.1,2.2,6.5,0,8.6ZM456.2,609c-3.3,2.9-3.4,2.9-16.1,2.9s-13-.2-14.4-1.8c-2.1-2.3-2.1-4.5,0-6.3,1.3-1,6-1.4,20.1-1.4,7.2,0,11.6,0,14.1,0-.4.3-.6.8-.6,1.5-.1,1.6.2,1.8,1.6,1-1.4,1.1-3.3,2.8-4.8,4ZM435.2,690.6c-5.1-.4-8.5-1.4-9.6-2.9-2-2.8-1.9-3.3.5-5.7s3.3-2,12.9-2h10.9l4.2,4.8.2.3c-.6-.5-1.2-1-1.7-1.2-2.1-1.1-2.1-1.1-.3,1,1,1.2,1.6,2.6,1.2,3.2-.4.6-5.4,1.1-12.8,1.2-7.8,0-11.1.4-9.2.9,1.2.3,2.3.5,3.7.7ZM441.9,636.5c-.8,1-3.3,1.4-8,1.4s-7-.3-8.4-2.2c-2-2.9-2-4.1.3-6.1,1.4-1.3,3.8-1.7,10.1-1.7h8.3l-.6,3.6c-.3,2-1.1,4.2-1.8,5ZM442.5,660.7l.7,3.2h-7.9c-6.4,0-8.2-.3-9.6-1.8-4.2-4.7-.5-8.2,8.6-8.2h.7c3.1,0,4.6,0,5.6.8,1,.8,1.3,2.5,2,6ZM207,411.9c2.9,2.9,7.4,2.6,9.9-.6,1.1-1.5,2.1-3.2,2.1-3.9,0-2.6-4.1-6.5-6.8-6.5-3.2,0-4.5.8-6,3.7-1.6,3.1-1.4,5,.9,7.3ZM458.2,689.4h-.5s-1.5-2.2-1.5-2.2l1.9,2.2Z"/>
  <path class="st2" d="M688,179.9v53H2v-103.1c0-78.2,0-88.2,3.8-96.4.7-1.5,1.5-3,2.5-4.9C14.7,16.5,25.2,7.8,39.3,2.7l6.2-2.2L498.9,0l.3,66.3c.4,73.2.2,71.2,7,84.2,4.4,8.3,15.5,19.2,23.8,23.3,2.2,1.1,4,2,5.8,2.7,9,3.6,19.4,3.6,81.8,3.6h70.3ZM206,57.9v120h26.6c29.5,0,37.4-.8,48.4-5.1,22.6-8.8,35.9-29.2,36-55.3,0-23.7-11.5-43.2-31.1-52.5-13.1-6.2-18.7-7-51.4-7h-28.4ZM95,57.9v120h30v-43h14.8c20.7,0,28.6-2.2,38.4-10.9,3-2.6,5.9-6.6,8-10.8,3-6.1,3.3-7.4,3.3-16.2s-2-18.2-8.7-25.6c-2.8-3.1-7.2-6.7-9.9-8-9.7-4.9-14-5.4-46.1-5.4h-29.8ZM334,57.9v120h31v-49h39v-22h-39v-26h51v-23h-82ZM258.9,151.9c-7.1,1.2-21.2,1.4-22.2.4-.4-.4-.7-16.2-.7-35.1v-34.4l13.8.4c14.7.4,17.7,1.3,26,7.5,8.1,6,12.5,20.5,10.4,33.9-1.4,8.9-3.6,13.6-8.9,18.6-5.1,4.9-10.8,7.6-18.5,8.8ZM152.7,109.6c-2.4,1.3-6.3,1.8-15.5,2.1l-12.2.4v-31.4l12.2.4c17.7.6,21.8,3.4,21.8,15.3s-2,10.9-6.3,13.2Z"/>
  <path class="st1" d="M2,407.9L1.5,52.2C1.2,23.4,24.5,0,53.3,0h577.4c29.5,0,53.5,23.8,53.8,53.3l3.5,354.8-1.8,357.1c-.1,27-22.1,48.9-49.1,48.9H41.1c-22.7,0-41-18.4-40.9-41.1l1.8-364.9ZM580.1,730.1c3.3-3.3,3.9-4.5,3.9-8.2s-.3-4.6-15.8-20.1c-11-11.1-16.4-15.8-18-15.8-1.2,0-3.9-1.5-5.9-3.3l-3.6-3.3,3-5.4c5-9,6.5-15.7,6-27.8-.4-9-.9-11.5-3.3-16.6-10-21.4-25-31.4-46.5-31.4-15.4,0-27.1,5-37.2,15.7-5.8,6.2-10.8,14.9-12.5,21.7-.4,1.7-.8,8.2-.8,14.5,0,11,0,11.8,3.3,18.8,1.9,4,3.8,7.2,4.2,7.2s.8.7.8,1.5c0,2.2,9.2,10.9,15.7,14.8,9.1,5.5,15.7,7,28.9,6.5,10.5-.4,11.7-.7,18.7-4.1,4.1-2,7.8-3.7,8.3-3.7,2.2,0,6.4,5.6,6.4,8.4,0,2.6,2.3,5.3,15.8,18.8,15.5,15.5,15.9,15.8,20.1,15.8s4.9-.6,8.2-3.9ZM279.5,728.6l4.5-4.3v-44.2c0-31.3-.3-44.9-1.1-46.4-2.2-4.2-5.8-7-9.6-7.3-6.5-.7-6.2,0-6.2-16.2s-1.6-27.5-5.9-35.8c-3.2-6.3-12.9-17.1-20-22.1-4.6-3.3-16.5-7.7-18.1-6.7-.5.3-1.2.2-1.5-.3-.6-1-15.7-.8-22.1.3-4.6.8-17.5,6.5-17.5,7.7s-.6.8-1.3.8c-1.4,0-9.9,7.9-13.5,12.5-3.1,4-7.9,14.1-8.8,18.5-.4,1.9-.9,11.4-1.1,21-.2,9.6-.6,18.1-.8,18.8-.2.7-2.1,1.2-4.3,1.2-4.3,0-9.5,3.6-11.6,8-1.7,3.4-2,87.3-.4,90.4,1.3,2.5,4.7,6,7.4,7.5,1.4.8,19.6,1.2,64.7,1.2h62.7s4.5-4.3,4.5-4.3ZM536.3,718.8c2.6-3,2.2-4.2-2.4-7.9-2.9-2.3-4.3-3-4.6-2-.2.7-1.3,2.2-2.3,3.2-1.8,1.8-4.2,1.9-57,1.8-36.1,0-56-.5-57.5-1.2-1.4-.6-2.5-2.2-2.9-4.1-.9-4.9,0-152.3.9-153.3.5-.5,19.6-.8,42.5-.8h41.7l.5,13c.3,7.2.9,13.7,1.3,14.5,1.9,3.9,6,5,19.1,5h12.6v5.5c0,5,.3,5.6,2.8,6.9,1.5.8,3.6,2.4,4.7,3.5,2.4,2.7,3.1,2.6,3.2-.2.6-13.8.5-21.8-.4-23.3-.6-1.1-8.8-9.5-18.2-18.7l-17.1-16.7h-96l-3.7,3.6-3.7,3.6-.3,81.9-.3,81.9,3.4,3.8,3.4,3.8,60.8.5c64.6.5,65.7.5,69.6-4.1ZM451.9,690.1l6.4-.6-4.2-4.8-4.2-4.8h-10.9c-9.6,0-11.2.2-12.9,2s-2.4,2.9-.5,5.7c2,2.9,12,3.8,26.3,2.4ZM442.5,660.7c-1.4-7-1.1-6.8-8.2-6.8s-12.8,3.5-8.6,8.2c1.3,1.5,3.2,1.8,9.6,1.8h7.9l-.7-3.2ZM441.9,636.5c.6-.8,1.4-3,1.8-5l.6-3.6h-8.3c-6.3,0-8.7.4-10.1,1.7-2.2,2-2.3,3.2-.3,6.1,1.3,1.9,2.5,2.2,8.4,2.2s7.2-.5,8-1.4ZM456.2,609c1.8-1.6,4.4-3.8,5.7-4.8,2.3-1.9,2.2-1.9-16.1-1.8-14.1,0-18.9.4-20.1,1.4-2.1,1.8-2.1,4,0,6.3,1.4,1.6,3.3,1.8,14.4,1.8s12.8,0,16.1-2.9ZM524.6,489.5c3.6-3.6,3.7-4.2,3.5-14.6,0-3.6.1-8,.4-9.8l.5-3.2h10.8c9.4,0,11.2-.3,13.5-2.1,5.3-4.2,4.9,5.8,4.7-103.4v-20s-16.8-16.7-16.8-16.7l-16.7-16.7h-42.8c-47,0-47.1,0-50.2,6-1.2,2.2-1.4,5.5-1.2,13.6l.3,10.6-2.6,1c-1.4.6-6.4.8-11.1.5-6.2-.4-9.2-.1-11.2.9-6,3.1-5.8.7-5.8,78.1s-.4,73.2,6.4,77.4c3,1.8,5.8,1.9,59,1.9h55.9l3.4-3.4ZM171.6,487c8.6-3.9,11.7-8,21.8-28.7,5.2-10.7,9.6-20.6,9.8-22.1.2-2.1-.7-3.4-5.1-6.8-2.9-2.3-6.2-5.8-7.3-7.8-1-2-2.2-3.7-2.6-3.7-.4,0-2.2,2.4-4,5.2-5.9,9.3-6.9,10.2-9.8,8.8-1.4-.6-3-.9-3.5-.6-.5.3-.9,0-.9-.6s-.7-.9-1.5-.6-1.7.1-2.1-.4c-1.6-2.6-19.5.2-22.9,3.6-.8.8-1.9,1.5-2.5,1.5-2.2,0-10.4,11.9-11.1,16.2,0,.4-.4,1.5-.7,2.3-.9,2.4.3,14.3,1.5,15.8.6.7.8,1.6.4,2-.4.4-.1.7.6.7s.9.5.6,1-.1,1,.5,1,.9.4.6.9c-.8,1.3,8.9,10,13.7,12.2,5.8,2.6,18.6,2.7,24.4,0ZM277.5,486.6c5.6-2.6,12.9-9.9,15.3-15.5,2.4-5.5,2.2-17.5-.5-23.4-3.7-8.2-16.1-19.3-19.3-17.3-.5.3-1.2.1-1.5-.5-1-1.7-11.6-1.1-17.5,1-3,1.1-6.1,2-6.8,2-1.1,0-14.7-20-53-78.5-27.6-42.1-31.3-47.5-32.2-47.5s-2.2,2.1-3.7,4.8c-2.4,4.1-2.8,5.9-3,13.7-.1,5.3.2,9.5.9,10.2.6.7.8,1.3.3,1.3s-.2.7.5,1.5,1,1.5.6,1.5c-.9,0,9.4,20.4,10.5,20.8.5.2.6.7.3,1.2-.3.5,0,.9.5.9s.8.5.5,1-.1,1,.5,1,.8.5.5,1-.1,1,.5,1,.8.5.5,1-.2,1,.2,1,2.1,2.9,3.7,6.5c1.5,3.6,3.3,6.5,3.8,6.5s.7.5.3,1-.1,1,.5,1,.9.4.5.9c-.3.5-.2,1.1.2,1.2.4.2,2.3,3.6,4.2,7.6,1.9,4,3.8,7.2,4.3,7.2s.6.5.2,1-.1,1,.5,1,.9.4.5.9c-.3.5-.2,1.1.2,1.2.4.2,2.5,3.9,4.5,8.1,2.7,5.5,4.7,8.3,6.8,9.5,8.7,4.8,15.1,9.7,17.1,13,1.2,2,2.6,3.9,3.1,4.1.4.2.6.7.2,1.2-.3.5,0,.9.5.9s.8.5.5,1,0,1,.6,1,1,.3.6.6c-.3.3,1.5,5,4.2,10.2s4.9,10,4.9,10.4c.3,2.1,5.4,10.8,8.6,14.4,5.5,6.4,12.3,9.2,22.1,9.3,6.3,0,9-.5,13-2.3ZM244.6,383.4c4.8-9.4,11.4-22,14.6-28,9.5-18.2,11.6-28,8.3-39.1-.8-2.7-2.6-6.1-4.1-7.4l-2.6-2.4-1.9,2.5c-1,1.4-2.7,4.1-3.7,6-1,1.9-2.1,3.6-2.5,3.8-.4.2-.8,1-.8,1.8s-.5,1.4-1,1.4-1,.6-1,1.4-.4,1.6-.8,1.8c-1.3.5-8.2,11.1-8.2,12.6s-.5,1.3-1,1.3-1,.7-1,1.5-.5,1.5-1,1.5-1,.7-1,1.5-.5,1.5-1,1.5-1,.7-1,1.5-.5,1.5-1,1.5-1,.6-1,1.4-.4,1.6-.9,1.8c-1.1.4-8.1,11.4-8.1,12.8s-.5,1-1,1-1,.7-1,1.5-.5,1.5-1,1.5-1,.7-1,1.5-.5,1.5-1,1.5-.9,1.4-.8,3c.1,1.6.6,3,1,3s.8.7.8,1.5.5,1.5,1,1.5,1,.7,1,1.5.5,1.5,1,1.5,1,.5,1,1.1c0,2.3,10.7,17.6,11.6,16.6.1-.1,4.1-7.9,9-17.2ZM688,206.4v-26.5h-69.2c-76.3,0-75.9,0-88.7-6.3-8.3-4.1-19.5-15-23.8-23.3-6.8-13-6.6-11-7-84.2l-.3-66.3-226.7.3L51.7.4c-4.1,0-8.2.7-12.1,2.1h-.3c-14.2,5.2-24.6,14-31.1,26-6.5,12.2-6.3,8.3-6.3,111.1v93.3h686v-26.5ZM494.5,685.9c-.4-.6-1.5-.9-2.6-.6-1,.3-1.9,0-1.9-.5s-.7-.8-1.4-.5c-.8.3-1.6.2-1.8-.2-.2-.4-2.1-1.6-4.2-2.7-10.5-5.4-17.3-15-19.7-27.8-1.1-5.8-1-7.5.5-12.9,3.9-14,9.4-20.6,22.3-26.6,4.9-2.3,7.1-2.7,14.3-2.7,7,0,9.5.5,14.2,2.6,6.8,3.2,19.8,15.5,18.1,17.2-.3.3,0,.6.6.6s1,.5.6,1-.2,1,.3,1,.9.6,1,1.2.6,4.1,1.2,7.6c1.9,11-1.7,23.1-9.5,31.5-5,5.4-14.8,10.5-21.4,11.2-3,.3-6.5.8-7.7,1.1-1.2.2-2.5,0-2.9-.6ZM517.2,668.3c2.3-2.1,2.4-6.6,0-8.6-1.5-1.3-5.2-1.6-23.5-1.7-15,0-21.8.2-21.8,1,0,1.5,2.9,7.1,4.8,9.2,1.3,1.5,3.7,1.8,20,1.8s18.8-.2,20.3-1.7ZM517.2,637.3c2.3-2.1,2.4-6.6,0-8.6-1.5-1.3-4.6-1.6-20.7-1.4l-18.9.2-2.9,4.7c-1.6,2.6-2.6,5.2-2.2,5.8.4.7,7.9,1.1,21.8,1.1s21.4-.2,22.9-1.7ZM200.7,704.6c-.3-.8.3-5.8,1.4-11.2,2.1-11,2.4-14.4,1-14.4s-1.8-1.5-3-3.4c-2.7-4.4-2.7-11,0-15.5,2.6-4.3,9.8-7.6,14.6-6.7,4.8.9,10,6.4,11.2,11.8.8,3.7.6,4.9-1.6,9-1.4,2.6-2.9,4.8-3.5,4.8-.9,0-.6,5,.8,13,.3,1.9.7,4.4.8,5.5.1,1.1.6,3.1,1,4.4,1.2,3.5-.5,4.1-12,4.1-7.7,0-10.3-.3-10.7-1.3ZM178,623.4c-1.2-3.2-1.2-19.8,0-27.9,1.1-7.3,5.2-16.4,9.4-20.5,1.7-1.7,6.1-4.5,9.6-6.3,5.9-2.9,7.4-3.2,15.5-3.2,7.9,0,9.7.4,14,2.7,7,3.8,12.8,9.7,16.1,16.5,2.8,5.6,2.9,6.4,3.2,23.6l.3,17.8h-67.2l-1-2.6ZM412,482c-1.3-.8-1.5-9.5-1.8-68.3-.2-56.1,0-67.7,1.1-68.6,1-.8,12-1.1,38.8-.9l37.4.3.5,12.8c.7,16.7.6,16.6,16.4,16.7,6.1,0,11.8.4,12.6.9,1.3.8,1.4,8,1.2,53.2-.2,34.3-.7,52.7-1.3,53.6-.8,1-12.4,1.2-52.2,1.2-28.1,0-51.8-.4-52.6-.9ZM478.1,449.3c5.4-2.4,13.2-10,16.2-15.8,3.3-6.3,3.6-20.2.7-28.1-2.4-6.5-11-16.5-14.2-16.5-1,0-1.8-.5-1.8-1.1s-.5-.8-1-.4-1,.2-1-.4c0-1.5-6.7-3.1-13.1-3.1-6.9,0-13.9,2-19,5.5-3.8,2.6-4,2.6-6.5,1-1.4-.9-2.8-2.3-3.1-3.1-.3-.8-.9-1.4-1.3-1.4-1.3,0-3.3,5.9-2.7,8,.3,1.1,0,5-.5,8.6-.8,4.6-.8,6.8,0,7.6,1.6,1.7,22.2,0,22.9-1.8.3-.8-.7-3-2.2-5-2.6-3.4-2.6-3.6-.9-5,2.5-1.9,10.1-4.5,13.3-4.5,7.5,0,17,6.1,20.8,13.4,2.1,3.9,2.3,5.1,2.3,10.8q0,7.1-4,12.8c-9,13.4-27.3,14.5-38,2.3-4.7-5.3-9.3-4.6-9.6,1.5-.2,3.7,8.6,12.2,15.6,14.9,7.1,2.8,20.1,2.5,27-.5ZM529.2,450.7c-.9-.9-1.2-11.6-1.2-41.8,0-33.6-.3-40.9-1.5-42.4-.8-1-8.2-8.8-16.6-17.3l-15.1-15.4-24.8.5c-15.1.3-25.8.1-27.4-.5-2.5-.9-2.6-1.3-2.6-9.1,0-13.1-4-12,40-12h38l.2,10.8c0,5.9.2,11.4.3,12.1s1.4,2.6,3,4.2c2.8,2.8,3.2,2.9,13.2,2.9s11,.3,11.8.6c1.4.5,1.6,6.2,1.6,53.9s-.2,53.3-1.6,53.9c-2.9,1.1-16,.7-17.2-.6ZM154,476c0-.3-1.4-1.2-3-1.9-4.6-2-8.2-7.4-8.7-12.9-1-12,10.6-21.7,22-18.3,4.1,1.2,11.3,7.2,10.1,8.4-.4.4-.2.7.4.7,1.4,0,1.6,11.5.3,14.2-1.8,3.4-5.1,6.8-8.3,8.5-2.8,1.5-12.6,2.5-12.6,1.4ZM264,475.9c-6.4-.6-8.8-1.8-12.4-6-7.1-8.4-4.3-21.1,5.6-25.8,5.4-2.6,9-2.7,14.4-.2,9.9,4.5,13.1,15.9,7,25.1-3.7,5.6-8,7.6-14.6,7ZM207,411.9c-2.3-2.3-2.5-4.2-.9-7.3,1.5-2.9,2.8-3.6,6-3.7,2.7,0,6.8,3.9,6.8,6.5s-.9,2.4-2.1,3.9c-2.5,3.2-7,3.5-9.9.6ZM95,117.9v-60h29.8c32,0,36.4.5,46.1,5.4,2.7,1.3,7.1,4.9,9.9,8,6.7,7.4,8.7,13.2,8.7,25.6s-.3,10.1-3.3,16.2c-2.1,4.2-5,8.2-8,10.8-9.9,8.7-17.8,10.9-38.4,10.9h-14.8v43h-30v-60ZM152.7,109.6c4.3-2.3,6.3-6.4,6.3-13.2,0-11.9-4-14.8-21.8-15.3l-12.2-.4v31.4l12.2-.4c9.1-.3,13.1-.8,15.5-2.1ZM206,117.9v-60h28.4c32.7,0,38.3.8,51.4,7,19.7,9.4,31.2,28.8,31.1,52.5,0,26.2-13.3,46.6-36,55.3-11,4.3-19,5.1-48.4,5.1h-26.6v-60ZM258.9,151.9c7.7-1.2,13.3-3.9,18.5-8.8,5.2-4.9,7.5-9.7,8.9-18.6,2.1-13.4-2.4-27.9-10.4-33.9-8.3-6.2-11.3-7.1-26-7.5l-13.8-.4v34.4c0,18.9.3,34.7.7,35.1,1,1,15,.8,22.2-.4ZM334,117.9v-60h82v23h-51v26h39v22h-39v49h-31v-60Z"/>
</svg>